<svg xmlns="http://www.w3.org/2000/svg" viewBox="0 0 1200 630" role="img" preserveAspectRatio="xMidYMid slice" aria-label="Adgent — the AI media buyer that reads your accounts and acts on your word"><defs><pattern id="grid" width="36" height="36" patternUnits="userSpaceOnUse"><path d="M36 0 H0 V36" fill="none" stroke="rgba(255,255,255,0.07)" stroke-width="1"/></pattern><radialGradient id="vign" cx="50%" cy="18%" r="90%"><stop offset="0%" stop-color="#ff6a3d"/><stop offset="100%" stop-color="#ec491d"/></radialGradient></defs><rect width="1200" height="630" fill="url(#vign)"/><rect width="1200" height="630" fill="url(#grid)"/><path d="M60 60 h24 M60 60 v24" stroke="rgba(255,255,255,0.22)" stroke-width="2" fill="none"/><path d="M1140 570 h-24 M1140 570 v-24" stroke="rgba(255,255,255,0.22)" stroke-width="2" fill="none"/><g transform="translate(72,62)"><rect width="38" height="38" rx="10" fill="#fff"/><g transform="translate(19,19.5) scale(0.175) translate(-85,-82)"><path d="M14 140 L85 6 L156 140 L128 140 L85 58 L42 140 Z" fill="#ff5a2c"/><path d="M50 140 L85 72 L120 140 L96 140 L85 118 L74 140 Z" fill="#ff5a2c"/><path d="M18 153 L152 153" stroke="#ff5a2c" stroke-width="9" stroke-linecap="round" opacity="0.62"/></g><text x="50" y="26" font-family="'Plus Jakarta Sans',sans-serif" font-size="23" font-weight="800" letter-spacing="-0.6" fill="#fff">Adgent</text></g><text x="72" y="176" font-family="'Geist Mono',monospace" font-size="21" font-weight="600" letter-spacing="3.6" fill="#fff">AI MEDIA BUYER</text><rect x="72" y="192" width="58" height="3" rx="1.5" fill="#fff"/><text x="72" y="300" font-family="'Plus Jakarta Sans',sans-serif" font-size="62" font-weight="700" letter-spacing="-2.2" fill="#fff"><tspan>It </tspan><tspan font-family="'Fraunces',serif" font-style="italic" font-weight="500">reads</tspan><tspan> your accounts</tspan></text><text x="72" y="374" font-family="'Plus Jakarta Sans',sans-serif" font-size="62" font-weight="700" letter-spacing="-2.2" fill="#fff"><tspan>and </tspan><tspan font-family="'Fraunces',serif" font-style="italic" font-weight="500">acts</tspan><tspan> on your word.</tspan></text><text x="72" y="424" font-family="'Plus Jakarta Sans',sans-serif" font-size="22" font-weight="500" fill="rgba(255,255,255,0.78)">Not a dashboard — a verdict.</text><g transform="translate(72,470)"><rect width="268" height="42" rx="21" fill="rgba(255,255,255,0.16)"/><text x="26" y="27" font-family="'Geist Mono',monospace" font-size="15" font-weight="600" letter-spacing="0.4" fill="#fff">Meta · Google · TikTok</text></g><g transform="translate(356,470)"><rect width="330" height="42" rx="21" fill="rgba(255,255,255,0.16)"/><text x="26" y="27" font-family="'Geist Mono',monospace" font-size="15" font-weight="600" letter-spacing="0.4" fill="#fff">Nothing runs until you approve</text></g><text x="1128" y="592" text-anchor="end" font-family="'Geist Mono',monospace" font-size="17" letter-spacing="0.8" fill="rgba(255,255,255,0.72)">adgent.app</text></svg>
