<svg xmlns="http://www.w3.org/2000/svg" viewBox="0 0 1200 630" role="img" preserveAspectRatio="xMidYMid slice"><defs><pattern id="grid" width="36" height="36" patternUnits="userSpaceOnUse"><path d="M36 0 H0 V36" fill="none" stroke="rgba(255,255,255,.07)" stroke-width="1"/></pattern><radialGradient id="vg" cx="24%" cy="6%" r="100%"><stop offset="0%" stop-color="#ff6a3d"/><stop offset="100%" stop-color="#ec491d"/></radialGradient></defs><rect width="1200" height="630" fill="url(#vg)"/><rect width="1200" height="630" fill="url(#grid)"/><path d="M60 60 h24 M60 60 v24" stroke="rgba(255,255,255,.24)" stroke-width="2" fill="none"/><path d="M1140 570 h-24 M1140 570 v-24" stroke="rgba(255,255,255,.24)" stroke-width="2" fill="none"/><text x="72" y="98" font-family="'Geist Mono',monospace" font-size="21" font-weight="600" letter-spacing="3.6" fill="#fff">COMPARISON</text><rect x="72" y="114" width="58" height="3" rx="1.5" fill="#fff"/><text x="72" y="196" font-family="'Plus Jakarta Sans',sans-serif" font-size="50" font-weight="700" letter-spacing="-2" fill="#fff"><tspan>AI media buyer vs</tspan></text><text x="72" y="254" font-family="'Plus Jakarta Sans',sans-serif" font-size="50" font-weight="700" letter-spacing="-2" fill="#fff"><tspan>PMax vs </tspan><tspan font-family="'Fraunces',serif" font-style="italic" font-weight="500">dashboard</tspan><tspan>.</tspan></text><g font-family="'Geist Mono',monospace" font-size="12" fill="rgba(255,255,255,.9)" text-anchor="end">
       <text x="694" y="212">on your side</text>
       <text x="694" y="242">reasons why</text>
       <text x="694" y="272">cross-platform</text>
       <text x="694" y="302">approval-gated</text>
     </g><g transform="translate(712,150)"><rect width="112" height="200" rx="14" fill="rgba(255,255,255,.13)" stroke="rgba(255,255,255,.24)"/><text x="56" y="28" text-anchor="middle" font-family="'Geist Mono',monospace" font-size="10" font-weight="700" letter-spacing="0.03em" fill="#fff">DASHBOARD</text><line x1="14" y1="40" x2="98" y2="40" stroke="rgba(255,255,255,.24)"/><text x="56" y="68" text-anchor="middle" font-family="'Plus Jakarta Sans',sans-serif" font-size="18" font-weight="700" fill="#fff">✓</text><text x="56" y="104" text-anchor="middle" font-family="'Plus Jakarta Sans',sans-serif" font-size="18" font-weight="700" fill="rgba(255,255,255,.34)">—</text><text x="56" y="140" text-anchor="middle" font-family="'Plus Jakarta Sans',sans-serif" font-size="18" font-weight="700" fill="rgba(255,255,255,.34)">—</text><text x="56" y="176" text-anchor="middle" font-family="'Plus Jakarta Sans',sans-serif" font-size="18" font-weight="700" fill="rgba(255,255,255,.34)">—</text></g><g transform="translate(842,150)"><rect width="112" height="200" rx="14" fill="rgba(255,255,255,.13)" stroke="rgba(255,255,255,.24)"/><text x="56" y="28" text-anchor="middle" font-family="'Geist Mono',monospace" font-size="10" font-weight="700" letter-spacing="0.03em" fill="#fff">PMAX</text><line x1="14" y1="40" x2="98" y2="40" stroke="rgba(255,255,255,.24)"/><text x="56" y="68" text-anchor="middle" font-family="'Plus Jakarta Sans',sans-serif" font-size="18" font-weight="700" fill="rgba(255,255,255,.34)">—</text><text x="56" y="104" text-anchor="middle" font-family="'Plus Jakarta Sans',sans-serif" font-size="18" font-weight="700" fill="rgba(255,255,255,.34)">—</text><text x="56" y="140" text-anchor="middle" font-family="'Plus Jakarta Sans',sans-serif" font-size="18" font-weight="700" fill="rgba(255,255,255,.34)">—</text><text x="56" y="176" text-anchor="middle" font-family="'Plus Jakarta Sans',sans-serif" font-size="18" font-weight="700" fill="rgba(255,255,255,.34)">—</text></g><g transform="translate(972,150)"><rect width="112" height="200" rx="14" fill="rgba(255,255,255,.97)" /><text x="56" y="28" text-anchor="middle" font-family="'Geist Mono',monospace" font-size="10" font-weight="700" letter-spacing="0.03em" fill="#ff5a2c">AI BUYER</text><line x1="14" y1="40" x2="98" y2="40" stroke="rgba(28,25,20,.1)"/><text x="56" y="68" text-anchor="middle" font-family="'Plus Jakarta Sans',sans-serif" font-size="18" font-weight="700" fill="#16935a">✓</text><text x="56" y="104" text-anchor="middle" font-family="'Plus Jakarta Sans',sans-serif" font-size="18" font-weight="700" fill="#16935a">✓</text><text x="56" y="140" text-anchor="middle" font-family="'Plus Jakarta Sans',sans-serif" font-size="18" font-weight="700" fill="#16935a">✓</text><text x="56" y="176" text-anchor="middle" font-family="'Plus Jakarta Sans',sans-serif" font-size="18" font-weight="700" fill="#16935a">✓</text></g><g transform="translate(1020,552)"><rect width="36" height="36" rx="10" fill="#fff"/><g transform="translate(18,18.5) scale(0.165) translate(-85,-82)"><path d="M14 140 L85 6 L156 140 L128 140 L85 58 L42 140 Z" fill="#ff5a2c"/><path d="M50 140 L85 72 L120 140 L96 140 L85 118 L74 140 Z" fill="#ff5a2c"/><path d="M18 153 L152 153" stroke="#ff5a2c" stroke-width="9" stroke-linecap="round" opacity=".62"/></g><text x="46" y="24" font-family="'Plus Jakarta Sans',sans-serif" font-size="21" font-weight="800" letter-spacing="-.03em" fill="#fff">Adgent</text></g></svg>