<svg xmlns="http://www.w3.org/2000/svg" viewBox="0 0 1200 630" role="img" preserveAspectRatio="xMidYMid slice"><defs><pattern id="grid" width="36" height="36" patternUnits="userSpaceOnUse"><path d="M36 0 H0 V36" fill="none" stroke="rgba(255,255,255,.07)" stroke-width="1"/></pattern><radialGradient id="vg" cx="24%" cy="6%" r="100%"><stop offset="0%" stop-color="#ff6a3d"/><stop offset="100%" stop-color="#ec491d"/></radialGradient></defs><rect width="1200" height="630" fill="url(#vg)"/><rect width="1200" height="630" fill="url(#grid)"/><path d="M60 60 h24 M60 60 v24" stroke="rgba(255,255,255,.24)" stroke-width="2" fill="none"/><path d="M1140 570 h-24 M1140 570 v-24" stroke="rgba(255,255,255,.24)" stroke-width="2" fill="none"/><text x="72" y="98" font-family="'Geist Mono',monospace" font-size="20" font-weight="600" letter-spacing="3.4" fill="#fff">FOR AGENCIES</text><rect x="72" y="114" width="54" height="3" rx="1.5" fill="#fff"/><text x="72" y="200" font-family="'Plus Jakarta Sans',sans-serif" font-size="48" font-weight="700" letter-spacing="-2" fill="#fff"><tspan>An AI media buyer</tspan></text><text x="72" y="256" font-family="'Plus Jakarta Sans',sans-serif" font-size="48" font-weight="700" letter-spacing="-2" fill="#fff"><tspan>for </tspan><tspan font-family="'Fraunces',serif" font-style="italic" font-weight="500">agencies</tspan><tspan>.</tspan></text><g transform="translate(760,190)">
    <rect x="0" y="0" width="56" height="56" rx="10" fill="rgba(255,255,255,.22)"/><circle cx="28" cy="28" r="8" fill="rgba(255,255,255,.9)"/><rect x="70" y="0" width="56" height="56" rx="10" fill="rgba(255,255,255,.22)"/><circle cx="98" cy="28" r="8" fill="rgba(255,255,255,.9)"/><rect x="140" y="0" width="56" height="56" rx="10" fill="rgba(255,255,255,.22)"/><circle cx="168" cy="28" r="8" fill="rgba(255,255,255,.9)"/><rect x="0" y="70" width="56" height="56" rx="10" fill="rgba(255,255,255,.22)"/><circle cx="28" cy="98" r="8" fill="rgba(255,255,255,.9)"/><rect x="70" y="70" width="56" height="56" rx="10" fill="rgba(255,255,255,.22)"/><circle cx="98" cy="98" r="8" fill="rgba(255,255,255,.9)"/><rect x="140" y="70" width="56" height="56" rx="10" fill="rgba(255,255,255,.22)"/><circle cx="168" cy="98" r="8" fill="rgba(255,255,255,.9)"/><rect x="0" y="140" width="56" height="56" rx="10" fill="rgba(255,255,255,.22)"/><circle cx="28" cy="168" r="8" fill="rgba(255,255,255,.9)"/><rect x="70" y="140" width="56" height="56" rx="10" fill="rgba(255,255,255,.22)"/><circle cx="98" cy="168" r="8" fill="rgba(255,255,255,.9)"/><rect x="140" y="140" width="56" height="56" rx="10" fill="rgba(255,255,255,.22)"/><circle cx="168" cy="168" r="8" fill="rgba(255,255,255,.9)"/>
    <g transform="translate(0,220)"><rect width="260" height="34" rx="9" fill="rgba(255,255,255,.22)"/><text x="15" y="21.32" font-family="'Geist Mono',monospace" font-size="12" font-weight="600" fill="#fff">one senior buyer · every account</text></g>
  </g><g transform="translate(1020,552)"><rect width="36" height="36" rx="10" fill="#fff"/><g transform="translate(18,18.5) scale(0.165) translate(-85,-82)"><path d="M14 140 L85 6 L156 140 L128 140 L85 58 L42 140 Z" fill="#ff5a2c"/><path d="M50 140 L85 72 L120 140 L96 140 L85 118 L74 140 Z" fill="#ff5a2c"/><path d="M18 153 L152 153" stroke="#ff5a2c" stroke-width="9" stroke-linecap="round" opacity=".62"/></g><text x="46" y="24" font-family="'Plus Jakarta Sans',sans-serif" font-size="21" font-weight="800" letter-spacing="-.03em" fill="#fff">Adgent</text></g></svg>