<svg xmlns="http://www.w3.org/2000/svg" viewBox="0 0 1200 630" role="img" preserveAspectRatio="xMidYMid slice"><defs>
    <pattern id="grid" width="36" height="36" patternUnits="userSpaceOnUse">
      <path d="M36 0 H0 V36" fill="none" stroke="rgba(255,255,255,0.07)" stroke-width="1"/>
    </pattern>
    <radialGradient id="vign" cx="50%" cy="18%" r="90%">
      <stop offset="0%" stop-color="#ff6a3d" stop-opacity="1"/>
      <stop offset="100%" stop-color="#ec491d" stop-opacity="1"/>
    </radialGradient>
  </defs>
  <rect width="1200" height="630" fill="url(#vign)"/>
  <rect width="1200" height="630" fill="url(#grid)"/>
  <!-- corner structure ticks -->
  <path d="M60 60 h24 M60 60 v24" stroke="rgba(255,255,255,0.22)" stroke-width="2" fill="none"/>
  <path d="M1140 570 h-24 M1140 570 v-24" stroke="rgba(255,255,255,0.22)" stroke-width="2" fill="none"/>
  <text x="72" y="98" font-family="'Geist Mono',monospace" font-size="21" font-weight="600" letter-spacing="3.6" fill="#ffffff">ATTRIBUTION</text>
  <rect x="72" y="114" width="58" height="3" rx="1.5" fill="#ffffff"/>
  <text x="402" y="98" font-family="'Geist Mono',monospace" font-size="15" letter-spacing="1.5" fill="rgba(255,255,255,0.62)">8 min read</text><text x="72" y="204" font-family="'Plus Jakarta Sans',sans-serif" font-size="58" font-weight="700" letter-spacing="-2" fill="#ffffff"><tspan>The 7-day window</tspan></text>
<text x="72" y="270" font-family="'Plus Jakarta Sans',sans-serif" font-size="58" font-weight="700" letter-spacing="-2" fill="#ffffff"><tspan>is </tspan><tspan font-family="'Fraunces',serif" font-style="italic" font-weight="500" fill="#ffffff">lying</tspan><tspan> before noon.</tspan></text><g transform="translate(676,290)">
    <line x1="-8" y1="0" x2="-8" y2="188" stroke="rgba(255,255,255,0.22)" stroke-width="2"/>
    <line x1="-8" y1="188" x2="432" y2="188" stroke="rgba(255,255,255,0.22)" stroke-width="2"/>
    <rect x="0" y="137" width="42" height="51" rx="7" fill="#ffffff" opacity="0.28"/>
      <text x="21" y="128" text-anchor="middle" font-family="'Geist Mono',monospace" font-size="12" fill="rgba(255,255,255,0.86)">2.2×</text><rect x="60" y="118" width="42" height="70" rx="7" fill="#ffffff" opacity="0.28"/>
      <text x="81" y="109" text-anchor="middle" font-family="'Geist Mono',monospace" font-size="12" fill="rgba(255,255,255,0.86)">2.5×</text><rect x="120" y="100" width="42" height="88" rx="7" fill="#ffffff" opacity="0.6"/>
      <text x="141" y="91" text-anchor="middle" font-family="'Geist Mono',monospace" font-size="12" fill="rgba(255,255,255,0.86)">2.8×</text><rect x="180" y="87" width="42" height="101" rx="7" fill="#ffffff" opacity="0.6"/>
      <text x="201" y="78" text-anchor="middle" font-family="'Geist Mono',monospace" font-size="12" fill="rgba(255,255,255,0.86)">3.0×</text><rect x="240" y="71" width="42" height="117" rx="7" fill="#ffffff" opacity="0.6"/>
      <text x="261" y="62" text-anchor="middle" font-family="'Geist Mono',monospace" font-size="12" fill="rgba(255,255,255,0.86)">3.3×</text><rect x="300" y="49" width="42" height="139" rx="7" fill="#ffffff" opacity="0.96"/>
      <text x="321" y="40" text-anchor="middle" font-family="'Geist Mono',monospace" font-size="12" fill="rgba(255,255,255,0.86)">3.7×</text><rect x="360" y="28" width="42" height="160" rx="7" fill="#ffffff" opacity="0.96"/>
      <text x="381" y="19" text-anchor="middle" font-family="'Geist Mono',monospace" font-size="12" fill="rgba(255,255,255,0.86)">4.0×</text>
    <text x="12" y="214" font-family="'Geist Mono',monospace" font-size="14" fill="rgba(255,255,255,0.62)">day 1</text>
    <text x="392" y="214" font-family="'Geist Mono',monospace" font-size="14" fill="rgba(255,255,255,0.62)">day 7</text>
    <g transform="translate(248,-50)"><rect width="168" height="34" rx="9" fill="rgba(255,255,255,0.22)"/><text x="15" y="22" font-family="'Geist Mono',monospace" font-size="15" font-weight="600" fill="#ffffff">draft · revising</text></g>
  </g>
  <!-- brand lockup: white tile so the mark still reads on coral -->
  <g transform="translate(1020,550)">
    <rect width="38" height="38" rx="10" fill="#ffffff"/>
    <g transform="translate(19,19.5) scale(0.175) translate(-85,-82)">
      <path d="M14 140 L85 6 L156 140 L128 140 L85 58 L42 140 Z" fill="#ff5a2c"/>
      <path d="M50 140 L85 72 L120 140 L96 140 L85 118 L74 140 Z" fill="#ff5a2c"/>
      <path d="M18 153 L152 153" stroke="#ff5a2c" stroke-width="9" stroke-linecap="round" opacity="0.62"/>
    </g>
    <text x="50" y="25" font-family="'Plus Jakarta Sans',sans-serif" font-size="22" font-weight="800" letter-spacing="-0.6" fill="#ffffff">Adgent</text>
  </g></svg>