<svg xmlns="http://www.w3.org/2000/svg" viewBox="0 0 1200 630" role="img" preserveAspectRatio="xMidYMid slice">
  <rect width="1200" height="630" fill="#f3f2ef"/>
  <!-- soft coral glow top-left -->
  <defs>
    <radialGradient id="glow" cx="18%" cy="12%" r="60%">
      <stop offset="0%" stop-color="#ff5a2c" stop-opacity="0.10"/>
      <stop offset="100%" stop-color="#ff5a2c" stop-opacity="0"/>
    </radialGradient>
    <linearGradient id="fade" x1="0" y1="0" x2="0" y2="1">
      <stop offset="0%" stop-color="#ff5a2c" stop-opacity="0.9"/>
      <stop offset="100%" stop-color="#ff5a2c" stop-opacity="0.35"/>
    </linearGradient>
  </defs>
  <rect width="1200" height="630" fill="url(#glow)"/>
  <!-- accent rail left -->
  <rect x="0" y="0" width="10" height="630" fill="#ff5a2c"/>
  <text x="70" y="92" font-family="'Geist Mono',monospace" font-size="20" font-weight="500" letter-spacing="3.4" fill="#ff5a2c">ATTRIBUTION</text>
  <rect x="70" y="108" width="52" height="3" rx="1.5" fill="#ff5a2c"/><text x="70" y="176" font-family="'Plus Jakarta Sans',sans-serif" font-size="50" font-weight="700" letter-spacing="-1.6" fill="#1c1a17">The 7-day window is</text>
<text x="70" y="234" font-family="'Plus Jakarta Sans',sans-serif" font-size="50" font-weight="700" letter-spacing="-1.6" fill="#1c1a17">lying before noon.</text><g transform="translate(690,300)">
    <!-- 7 bars rising as attribution matures -->
    <rect x="0" y="139" width="40" height="51" rx="7" fill="#b9b4a8" opacity="0.5"/><rect x="58" y="121" width="40" height="69" rx="7" fill="#b9b4a8" opacity="0.5"/><rect x="116" y="107" width="40" height="83" rx="7" fill="#cf8a26" opacity="0.92"/><rect x="174" y="97" width="40" height="93" rx="7" fill="#cf8a26" opacity="0.92"/><rect x="232" y="82" width="40" height="108" rx="7" fill="#cf8a26" opacity="0.92"/><rect x="290" y="61" width="40" height="129" rx="7" fill="#16935a" opacity="0.92"/><rect x="348" y="40" width="40" height="150" rx="7" fill="#16935a" opacity="0.92"/>
    <line x1="-6" y1="192" x2="416" y2="192" stroke="rgba(28,25,20,0.16)" stroke-width="2"/>
    <text x="0" y="228" font-family="'Geist Mono',monospace" font-size="15" fill="#9a958a">day 1</text>
    <text x="372" y="228" font-family="'Geist Mono',monospace" font-size="15" fill="#9a958a">day 7</text>
    <g transform="translate(4,-2)">
      <rect x="-4" y="-38" width="150" height="34" rx="8" fill="rgba(216,71,47,0.12)"/>
      <text x="12" y="-15" font-family="'Geist Mono',monospace" font-size="16" font-weight="600" fill="#d8472f">draft · revising</text>
    </g>
  </g>
  <!-- brand lockup bottom-right -->
  <g transform="translate(1040,548)">
    <rect width="34" height="34" rx="9" fill="#ff5a2c"/>
    <g transform="translate(17,17.5) scale(0.155) translate(-85,-82)">
      <path d="M14 140 L85 6 L156 140 L128 140 L85 58 L42 140 Z" fill="#fff"/>
      <path d="M50 140 L85 72 L120 140 L96 140 L85 118 L74 140 Z" fill="#fff"/>
      <path d="M18 153 L152 153" stroke="#fff" stroke-width="9" stroke-linecap="round" opacity="0.62"/>
    </g>
    <text x="46" y="23" font-family="'Plus Jakarta Sans',sans-serif" font-size="20" font-weight="800" letter-spacing="-0.5" fill="#1c1a17">Adgent</text>
  </g></svg>