<svg xmlns="http://www.w3.org/2000/svg" viewBox="0 0 1200 630" role="img" preserveAspectRatio="xMidYMid slice">
  <rect width="1200" height="630" fill="#f3f2ef"/>
  <!-- soft coral glow top-left -->
  <defs>
    <radialGradient id="glow" cx="18%" cy="12%" r="60%">
      <stop offset="0%" stop-color="#ff5a2c" stop-opacity="0.10"/>
      <stop offset="100%" stop-color="#ff5a2c" stop-opacity="0"/>
    </radialGradient>
    <linearGradient id="fade" x1="0" y1="0" x2="0" y2="1">
      <stop offset="0%" stop-color="#ff5a2c" stop-opacity="0.9"/>
      <stop offset="100%" stop-color="#ff5a2c" stop-opacity="0.35"/>
    </linearGradient>
  </defs>
  <rect width="1200" height="630" fill="url(#glow)"/>
  <!-- accent rail left -->
  <rect x="0" y="0" width="10" height="630" fill="#ff5a2c"/>
  <text x="70" y="92" font-family="'Geist Mono',monospace" font-size="20" font-weight="500" letter-spacing="3.4" fill="#ff5a2c">SCALING</text>
  <rect x="70" y="108" width="52" height="3" rx="1.5" fill="#ff5a2c"/><text x="70" y="176" font-family="'Plus Jakarta Sans',sans-serif" font-size="50" font-weight="700" letter-spacing="-1.6" fill="#1c1a17">CBO vs ABO</text>
<text x="70" y="234" font-family="'Plus Jakarta Sans',sans-serif" font-size="50" font-weight="700" letter-spacing="-1.6" fill="#1c1a17">in 2026.</text><g transform="translate(690,150)">
    <path d="M60 20 L60 90 M60 90 L4 150 M60 90 L116 150" fill="none" stroke="rgba(28,25,20,0.16)" stroke-width="3" stroke-linecap="round"/>
    <rect x="10" y="0" width="104" height="42" rx="10" fill="rgba(255,90,44,0.12)"/>
    <text x="30" y="27" font-family="'Geist Mono',monospace" font-size="16" font-weight="600" fill="#ff5a2c">spend?</text>
    <g transform="translate(-96,150)">
      <rect x="0" y="0" width="200" height="120" rx="14" fill="#ffffff" stroke="rgba(28,25,20,0.16)"/>
      <text x="24" y="44" font-family="'Plus Jakarta Sans',sans-serif" font-size="30" font-weight="700" fill="#ff5a2c">CBO</text>
      <text x="24" y="76" font-family="'Geist Mono',monospace" font-size="14" fill="#6c685f">let Meta</text>
      <text x="24" y="98" font-family="'Geist Mono',monospace" font-size="14" fill="#6c685f">allocate</text>
    </g>
    <g transform="translate(150,150)">
      <rect x="0" y="0" width="200" height="120" rx="14" fill="#ffffff" stroke="rgba(28,25,20,0.16)"/>
      <text x="24" y="44" font-family="'Plus Jakarta Sans',sans-serif" font-size="30" font-weight="700" fill="#1c1a17">ABO</text>
      <text x="24" y="76" font-family="'Geist Mono',monospace" font-size="14" fill="#6c685f">you hold</text>
      <text x="24" y="98" font-family="'Geist Mono',monospace" font-size="14" fill="#6c685f">the line</text>
    </g>
  </g>
  <!-- brand lockup bottom-right -->
  <g transform="translate(1040,548)">
    <rect width="34" height="34" rx="9" fill="#ff5a2c"/>
    <g transform="translate(17,17.5) scale(0.155) translate(-85,-82)">
      <path d="M14 140 L85 6 L156 140 L128 140 L85 58 L42 140 Z" fill="#fff"/>
      <path d="M50 140 L85 72 L120 140 L96 140 L85 118 L74 140 Z" fill="#fff"/>
      <path d="M18 153 L152 153" stroke="#fff" stroke-width="9" stroke-linecap="round" opacity="0.62"/>
    </g>
    <text x="46" y="23" font-family="'Plus Jakarta Sans',sans-serif" font-size="20" font-weight="800" letter-spacing="-0.5" fill="#1c1a17">Adgent</text>
  </g></svg>