<svg xmlns="http://www.w3.org/2000/svg" viewBox="0 0 1200 630" role="img" preserveAspectRatio="xMidYMid slice"><defs>
    <pattern id="grid" width="36" height="36" patternUnits="userSpaceOnUse">
      <path d="M36 0 H0 V36" fill="none" stroke="rgba(255,255,255,0.07)" stroke-width="1"/>
    </pattern>
    <radialGradient id="vign" cx="50%" cy="18%" r="90%">
      <stop offset="0%" stop-color="#ff6a3d" stop-opacity="1"/>
      <stop offset="100%" stop-color="#ec491d" stop-opacity="1"/>
    </radialGradient>
  </defs>
  <rect width="1200" height="630" fill="url(#vign)"/>
  <rect width="1200" height="630" fill="url(#grid)"/>
  <!-- corner structure ticks -->
  <path d="M60 60 h24 M60 60 v24" stroke="rgba(255,255,255,0.22)" stroke-width="2" fill="none"/>
  <path d="M1140 570 h-24 M1140 570 v-24" stroke="rgba(255,255,255,0.22)" stroke-width="2" fill="none"/>
  <text x="72" y="98" font-family="'Geist Mono',monospace" font-size="21" font-weight="600" letter-spacing="3.6" fill="#ffffff">ATTRIBUTION</text>
  <rect x="72" y="114" width="58" height="3" rx="1.5" fill="#ffffff"/>
  <text x="402" y="98" font-family="'Geist Mono',monospace" font-size="15" letter-spacing="1.5" fill="rgba(255,255,255,0.62)">7 min read</text><text x="72" y="204" font-family="'Plus Jakarta Sans',sans-serif" font-size="62" font-weight="700" letter-spacing="-2" fill="#ffffff"><tspan>Both platforms</tspan></text>
<text x="72" y="274" font-family="'Plus Jakarta Sans',sans-serif" font-size="62" font-weight="700" letter-spacing="-2" fill="#ffffff"><tspan>are </tspan><tspan font-family="'Fraunces',serif" font-style="italic" font-weight="500" fill="#ffffff">right</tspan><tspan>.</tspan></text><g transform="translate(694,152)">
    <g>
      <rect x="0" y="0" width="188" height="158" rx="17" fill="rgba(255,255,255,0.96)"/>
      <text x="24" y="50" font-family="'Geist Mono',monospace" font-size="16" letter-spacing="1" fill="#6c685f">META</text>
      <text x="24" y="112" font-family="'Fraunces',serif" font-size="58" font-style="italic" font-weight="500" fill="#ff5a2c">4.2×</text>
      <text x="24" y="140" font-family="'Geist Mono',monospace" font-size="12" fill="#6c685f">7-day click</text>
    </g>
    <text x="212" y="98" font-family="'Plus Jakarta Sans',sans-serif" font-size="40" font-weight="700" fill="#ffffff">≠</text>
    <g transform="translate(264,0)">
      <rect x="0" y="0" width="188" height="158" rx="17" fill="rgba(255,255,255,0.96)"/>
      <text x="24" y="50" font-family="'Geist Mono',monospace" font-size="16" letter-spacing="1" fill="#6c685f">GOOGLE</text>
      <text x="24" y="112" font-family="'Fraunces',serif" font-size="58" font-style="italic" font-weight="500" fill="#1c1a17">3.1×</text>
      <text x="24" y="140" font-family="'Geist Mono',monospace" font-size="12" fill="#6c685f">data-driven</text>
    </g>
    <g transform="translate(52,186)"><rect width="352" height="34" rx="9" fill="rgba(255,255,255,0.22)"/><text x="15" y="22" font-family="'Geist Mono',monospace" font-size="14" font-weight="600" fill="#ffffff">different windows · not comparable</text></g>
  </g>
  <!-- brand lockup: white tile so the mark still reads on coral -->
  <g transform="translate(1020,550)">
    <rect width="38" height="38" rx="10" fill="#ffffff"/>
    <g transform="translate(19,19.5) scale(0.175) translate(-85,-82)">
      <path d="M14 140 L85 6 L156 140 L128 140 L85 58 L42 140 Z" fill="#ff5a2c"/>
      <path d="M50 140 L85 72 L120 140 L96 140 L85 118 L74 140 Z" fill="#ff5a2c"/>
      <path d="M18 153 L152 153" stroke="#ff5a2c" stroke-width="9" stroke-linecap="round" opacity="0.62"/>
    </g>
    <text x="50" y="25" font-family="'Plus Jakarta Sans',sans-serif" font-size="22" font-weight="800" letter-spacing="-0.6" fill="#ffffff">Adgent</text>
  </g></svg>