<svg xmlns="http://www.w3.org/2000/svg" viewBox="0 0 1200 630" role="img" preserveAspectRatio="xMidYMid slice"><defs><pattern id="grid" width="36" height="36" patternUnits="userSpaceOnUse"><path d="M36 0 H0 V36" fill="none" stroke="rgba(255,255,255,.07)" stroke-width="1"/></pattern><radialGradient id="vg" cx="24%" cy="6%" r="100%"><stop offset="0%" stop-color="#ff6a3d"/><stop offset="100%" stop-color="#ec491d"/></radialGradient></defs><rect width="1200" height="630" fill="url(#vg)"/><rect width="1200" height="630" fill="url(#grid)"/><path d="M60 60 h24 M60 60 v24" stroke="rgba(255,255,255,.24)" stroke-width="2" fill="none"/><path d="M1140 570 h-24 M1140 570 v-24" stroke="rgba(255,255,255,.24)" stroke-width="2" fill="none"/><text x="72" y="98" font-family="'Geist Mono',monospace" font-size="20" font-weight="600" letter-spacing="3.4" fill="#fff">DIAGNOSTIC · HEADS-UP</text><rect x="72" y="114" width="54" height="3" rx="1.5" fill="#fff"/><text x="72" y="210" font-family="'Plus Jakarta Sans',sans-serif" font-size="52" font-weight="700" letter-spacing="-2" fill="#fff"><tspan>Your CPA is</tspan></text><text x="72" y="270" font-family="'Plus Jakarta Sans',sans-serif" font-size="52" font-weight="700" letter-spacing="-2" fill="#fff"><tspan>about to </tspan><tspan font-family="'Fraunces',serif" font-style="italic" font-weight="500">rise</tspan><tspan>.</tspan></text><g transform="translate(700,170)">
    <line x1="0" y1="40" x2="420" y2="40" stroke="rgba(255,255,255,.07)" stroke-width="1.4"/><line x1="0" y1="120" x2="420" y2="120" stroke="rgba(255,255,255,.07)" stroke-width="1.4"/><line x1="0" y1="200" x2="420" y2="200" stroke="rgba(255,255,255,.07)" stroke-width="1.4"/>
    <line x1="0" y1="0" x2="0" y2="230" stroke="rgba(255,255,255,.24)" stroke-width="2"/>
    <path d="M0 195 L210 195" fill="none" stroke="rgba(255,255,255,.9)" stroke-width="4" stroke-linecap="round"/>
    <path d="M210 195 C280 195 330 90 420 55" fill="none" stroke="#fff" stroke-width="6" stroke-linecap="round"/>
    <circle cx="420" cy="55" r="9" fill="#d8472f"/>
    <text x="10" y="185" font-family="'Geist Mono',monospace" font-size="14" fill="rgba(255,255,255,.9)">tCPA $5 actual</text>
    <text x="300" y="45" font-family="'Geist Mono',monospace" font-size="14" fill="#fff">→ $10 target</text>
    <g transform="translate(60,250)"><rect width="300" height="34" rx="9" fill="rgba(255,255,255,.22)"/><text x="15" y="21.32" font-family="'Geist Mono',monospace" font-size="12" font-weight="600" fill="#fff">Aug 17 · target-based bidding</text></g>
  </g><g transform="translate(1020,552)"><rect width="36" height="36" rx="10" fill="#fff"/><g transform="translate(18,18.5) scale(0.165) translate(-85,-82)"><path d="M14 140 L85 6 L156 140 L128 140 L85 58 L42 140 Z" fill="#ff5a2c"/><path d="M50 140 L85 72 L120 140 L96 140 L85 118 L74 140 Z" fill="#ff5a2c"/><path d="M18 153 L152 153" stroke="#ff5a2c" stroke-width="9" stroke-linecap="round" opacity=".62"/></g><text x="46" y="24" font-family="'Plus Jakarta Sans',sans-serif" font-size="21" font-weight="800" letter-spacing="-.03em" fill="#fff">Adgent</text></g></svg>