<svg xmlns="http://www.w3.org/2000/svg" viewBox="0 0 1200 630" role="img" preserveAspectRatio="xMidYMid slice"><defs><pattern id="grid" width="36" height="36" patternUnits="userSpaceOnUse"><path d="M36 0 H0 V36" fill="none" stroke="rgba(255,255,255,0.07)" stroke-width="1"/></pattern><radialGradient id="vign" cx="50%" cy="18%" r="90%"><stop offset="0%" stop-color="#ff6a3d"/><stop offset="100%" stop-color="#ec491d"/></radialGradient></defs><rect width="1200" height="630" fill="url(#vign)"/><rect width="1200" height="630" fill="url(#grid)"/><path d="M60 60 h24 M60 60 v24" stroke="rgba(255,255,255,0.22)" stroke-width="2" fill="none"/><path d="M1140 570 h-24 M1140 570 v-24" stroke="rgba(255,255,255,0.22)" stroke-width="2" fill="none"/><text x="72" y="98" font-family="'Geist Mono',monospace" font-size="21" font-weight="600" letter-spacing="3.6" fill="#fff">PLAYBOOK</text><rect x="72" y="114" width="58" height="3" rx="1.5" fill="#fff"/><text x="402" y="98" font-family="'Geist Mono',monospace" font-size="15" letter-spacing="1.5" fill="rgba(255,255,255,0.62)">9 min read</text><text x="72" y="204" font-family="'Plus Jakarta Sans',sans-serif" font-size="56" font-weight="700" letter-spacing="-2" fill="#fff"><tspan>Audit a Google Ads</tspan></text><text x="72" y="268" font-family="'Plus Jakarta Sans',sans-serif" font-size="56" font-weight="700" letter-spacing="-2" fill="#fff"><tspan>account, </tspan><tspan font-family="'Fraunces',serif" font-style="italic" font-weight="500">properly</tspan><tspan>.</tspan></text><g transform="translate(690,150)">
    <rect x="0" y="0" width="420" height="300" rx="18" fill="rgba(255,255,255,0.96)"/>
    <text x="26" y="44" font-family="'Geist Mono',monospace" font-size="13" letter-spacing="1.5" fill="#6c685f">ACCOUNT AUDIT · 12 CHECKS</text>
    <circle cx="42" cy="71" r="13" fill="rgba(22,147,90,0.14)"/><path d="M36 -5 l4 4 l8 -9" transform="translate(0,76)" fill="none" stroke="#16935a" stroke-width="3" stroke-linecap="round" stroke-linejoin="round"/><text x="66" y="76" font-family="'Plus Jakarta Sans',sans-serif" font-size="16" font-weight="500" fill="#1c1a17">Conversion tracking valid</text><circle cx="42" cy="113" r="13" fill="rgba(22,147,90,0.14)"/><path d="M36 -5 l4 4 l8 -9" transform="translate(0,118)" fill="none" stroke="#16935a" stroke-width="3" stroke-linecap="round" stroke-linejoin="round"/><text x="66" y="118" font-family="'Plus Jakarta Sans',sans-serif" font-size="16" font-weight="500" fill="#1c1a17">Wasted search terms</text><circle cx="42" cy="155" r="13" fill="rgba(216,71,47,0.12)"/><path d="M42 150 v6 M42 159 v0.5" stroke="#d8472f" stroke-width="3" stroke-linecap="round"/><text x="66" y="160" font-family="'Plus Jakarta Sans',sans-serif" font-size="16" font-weight="600" fill="#d8472f">Placement leakage</text><circle cx="42" cy="197" r="13" fill="rgba(22,147,90,0.14)"/><path d="M36 -5 l4 4 l8 -9" transform="translate(0,202)" fill="none" stroke="#16935a" stroke-width="3" stroke-linecap="round" stroke-linejoin="round"/><text x="66" y="202" font-family="'Plus Jakarta Sans',sans-serif" font-size="16" font-weight="500" fill="#1c1a17">Bid strategy fit</text><circle cx="42" cy="239" r="13" fill="rgba(22,147,90,0.14)"/><path d="M36 -5 l4 4 l8 -9" transform="translate(0,244)" fill="none" stroke="#16935a" stroke-width="3" stroke-linecap="round" stroke-linejoin="round"/><text x="66" y="244" font-family="'Plus Jakarta Sans',sans-serif" font-size="16" font-weight="500" fill="#1c1a17">Budget pacing</text>
    <line x1="26" y1="288" x2="394" y2="288" stroke="rgba(28,25,20,0.10)"/>
  </g>
  <g transform="translate(690,470)"><rect width="300" height="34" rx="9" fill="rgba(255,255,255,0.22)"/><text x="15" y="22" font-family="'Geist Mono',monospace" font-size="14" font-weight="600" fill="#fff">recoverable spend, ranked</text></g><g transform="translate(1020,550)"><rect width="38" height="38" rx="10" fill="#fff"/><g transform="translate(19,19.5) scale(0.175) translate(-85,-82)"><path d="M14 140 L85 6 L156 140 L128 140 L85 58 L42 140 Z" fill="#ff5a2c"/><path d="M50 140 L85 72 L120 140 L96 140 L85 118 L74 140 Z" fill="#ff5a2c"/><path d="M18 153 L152 153" stroke="#ff5a2c" stroke-width="9" stroke-linecap="round" opacity="0.62"/></g><text x="50" y="25" font-family="'Plus Jakarta Sans',sans-serif" font-size="22" font-weight="800" letter-spacing="-0.6" fill="#fff">Adgent</text></g></svg>