<svg xmlns="http://www.w3.org/2000/svg" viewBox="0 0 1200 630" role="img" preserveAspectRatio="xMidYMid slice"><defs><pattern id="grid" width="36" height="36" patternUnits="userSpaceOnUse"><path d="M36 0 H0 V36" fill="none" stroke="rgba(255,255,255,.07)" stroke-width="1"/></pattern><radialGradient id="vg" cx="24%" cy="6%" r="100%"><stop offset="0%" stop-color="#ff6a3d"/><stop offset="100%" stop-color="#ec491d"/></radialGradient></defs><rect width="1200" height="630" fill="url(#vg)"/><rect width="1200" height="630" fill="url(#grid)"/><path d="M60 60 h24 M60 60 v24" stroke="rgba(255,255,255,.24)" stroke-width="2" fill="none"/><path d="M1140 570 h-24 M1140 570 v-24" stroke="rgba(255,255,255,.24)" stroke-width="2" fill="none"/><text x="72" y="98" font-family="'Geist Mono',monospace" font-size="20" font-weight="600" letter-spacing="3.4" fill="#fff">BUYER'S FRAMEWORK</text><rect x="72" y="114" width="54" height="3" rx="1.5" fill="#fff"/><text x="72" y="200" font-family="'Plus Jakarta Sans',sans-serif" font-size="52" font-weight="700" letter-spacing="-2" fill="#fff"><tspan>How to </tspan><tspan font-family="'Fraunces',serif" font-style="italic" font-weight="500">choose</tspan></text><text x="72" y="260" font-family="'Plus Jakarta Sans',sans-serif" font-size="52" font-weight="700" letter-spacing="-2" fill="#fff"><tspan>an AI ad tool</tspan></text><g transform="translate(72,340)">
    <rect x="0" y="0" width="118" height="150" rx="14" fill="rgba(255,255,255,.10)" stroke="rgba(255,255,255,.28)" stroke-width="1.5"/>
    <rect x="16" y="18" width="52" height="8" rx="4" fill="rgba(255,255,255,.6)"/>
    <text x="16" y="86" font-family="'Geist Mono',monospace" font-size="12" font-weight="600" fill="#fff">CREATIVE</text><text x="16" y="106" font-family="'Geist Mono',monospace" font-size="11" fill="rgba(255,255,255,.7)">generation</text>
    <rect x="152" y="0" width="118" height="150" rx="14" fill="rgba(255,255,255,.10)" stroke="rgba(255,255,255,.28)" stroke-width="1.5"/>
    <rect x="168" y="18" width="52" height="8" rx="4" fill="rgba(255,255,255,.6)"/>
    <text x="168" y="86" font-family="'Geist Mono',monospace" font-size="12" font-weight="600" fill="#fff">BID</text><text x="168" y="106" font-family="'Geist Mono',monospace" font-size="11" fill="rgba(255,255,255,.7)">automation</text>
    <rect x="304" y="0" width="118" height="150" rx="14" fill="rgba(255,255,255,.97)"/>
    <circle cx="330" cy="34" r="9" fill="rgba(255,90,44,.14)"/><path d="M326 34 l3 3 l6 -7" fill="none" stroke="#ff5a2c" stroke-width="2.6" stroke-linecap="round" stroke-linejoin="round"/>
    <text x="320" y="90" font-family="'Geist Mono',monospace" font-size="12" font-weight="700" fill="#ff5a2c">ANALYSIS</text><text x="320" y="110" font-family="'Geist Mono',monospace" font-size="11" fill="#6c685f">diagnostics</text>
    <rect x="456" y="0" width="118" height="150" rx="14" fill="rgba(255,255,255,.10)" stroke="rgba(255,255,255,.28)" stroke-width="1.5"/>
    <rect x="472" y="18" width="52" height="8" rx="4" fill="rgba(255,255,255,.6)"/>
    <text x="472" y="86" font-family="'Geist Mono',monospace" font-size="12" font-weight="600" fill="#fff">DSP</text><text x="472" y="106" font-family="'Geist Mono',monospace" font-size="11" fill="rgba(255,255,255,.7)">programmatic</text>
  </g><g transform="translate(1020,552)"><rect width="36" height="36" rx="10" fill="#fff"/><g transform="translate(18,18.5) scale(0.165) translate(-85,-82)"><path d="M14 140 L85 6 L156 140 L128 140 L85 58 L42 140 Z" fill="#ff5a2c"/><path d="M50 140 L85 72 L120 140 L96 140 L85 118 L74 140 Z" fill="#ff5a2c"/><path d="M18 153 L152 153" stroke="#ff5a2c" stroke-width="9" stroke-linecap="round" opacity=".62"/></g><text x="46" y="24" font-family="'Plus Jakarta Sans',sans-serif" font-size="21" font-weight="800" letter-spacing="-.03em" fill="#fff">Adgent</text></g></svg>