<svg xmlns="http://www.w3.org/2000/svg" viewBox="0 0 1200 630" role="img" preserveAspectRatio="xMidYMid slice"><defs><pattern id="grid" width="36" height="36" patternUnits="userSpaceOnUse"><path d="M36 0 H0 V36" fill="none" stroke="rgba(255,255,255,.07)" stroke-width="1"/></pattern><radialGradient id="vg" cx="24%" cy="6%" r="100%"><stop offset="0%" stop-color="#ff6a3d"/><stop offset="100%" stop-color="#ec491d"/></radialGradient></defs><rect width="1200" height="630" fill="url(#vg)"/><rect width="1200" height="630" fill="url(#grid)"/><path d="M60 60 h24 M60 60 v24" stroke="rgba(255,255,255,.24)" stroke-width="2" fill="none"/><path d="M1140 570 h-24 M1140 570 v-24" stroke="rgba(255,255,255,.24)" stroke-width="2" fill="none"/><text x="72" y="98" font-family="'Geist Mono',monospace" font-size="20" font-weight="600" letter-spacing="3.4" fill="#fff">COMPARISON</text><rect x="72" y="114" width="54" height="3" rx="1.5" fill="#fff"/><text x="72" y="200" font-family="'Plus Jakarta Sans',sans-serif" font-size="50" font-weight="700" letter-spacing="-2" fill="#fff"><tspan>Meta vs Google:</tspan></text><text x="72" y="258" font-family="'Plus Jakarta Sans',sans-serif" font-size="50" font-weight="700" letter-spacing="-2" fill="#fff"><tspan>which </tspan><tspan font-family="'Fraunces',serif" font-style="italic" font-weight="500">first</tspan><tspan>?</tspan></text><g transform="translate(710,230)">
    <rect x="0" y="0" width="150" height="150" rx="16" fill="rgba(255,255,255,.97)"/><text x="24" y="46" font-family="'Geist Mono',monospace" font-size="15" fill="#6c685f">META</text><text x="24" y="108" font-family="'Fraunces',serif" font-size="46" font-style="italic" font-weight="500" fill="#ff5a2c">4.2×</text>
    <text x="174" y="90" font-family="'Plus Jakarta Sans',sans-serif" font-size="36" font-weight="700" fill="#fff">≠</text>
    <g transform="translate(226,0)"><rect width="150" height="150" rx="16" fill="rgba(255,255,255,.97)"/><text x="24" y="46" font-family="'Geist Mono',monospace" font-size="15" fill="#6c685f">GOOGLE</text><text x="24" y="108" font-family="'Fraunces',serif" font-size="46" font-style="italic" font-weight="500" fill="#1c1a17">3.1×</text></g>
  </g><g transform="translate(1020,552)"><rect width="36" height="36" rx="10" fill="#fff"/><g transform="translate(18,18.5) scale(0.165) translate(-85,-82)"><path d="M14 140 L85 6 L156 140 L128 140 L85 58 L42 140 Z" fill="#ff5a2c"/><path d="M50 140 L85 72 L120 140 L96 140 L85 118 L74 140 Z" fill="#ff5a2c"/><path d="M18 153 L152 153" stroke="#ff5a2c" stroke-width="9" stroke-linecap="round" opacity=".62"/></g><text x="46" y="24" font-family="'Plus Jakarta Sans',sans-serif" font-size="21" font-weight="800" letter-spacing="-.03em" fill="#fff">Adgent</text></g></svg>