<svg xmlns="http://www.w3.org/2000/svg" viewBox="0 0 1200 630" role="img" preserveAspectRatio="xMidYMid slice"><defs><pattern id="grid" width="36" height="36" patternUnits="userSpaceOnUse"><path d="M36 0 H0 V36" fill="none" stroke="rgba(255,255,255,.07)" stroke-width="1"/></pattern><radialGradient id="vg" cx="24%" cy="6%" r="100%"><stop offset="0%" stop-color="#ff6a3d"/><stop offset="100%" stop-color="#ec491d"/></radialGradient></defs><rect width="1200" height="630" fill="url(#vg)"/><rect width="1200" height="630" fill="url(#grid)"/><path d="M60 60 h24 M60 60 v24" stroke="rgba(255,255,255,.24)" stroke-width="2" fill="none"/><path d="M1140 570 h-24 M1140 570 v-24" stroke="rgba(255,255,255,.24)" stroke-width="2" fill="none"/><text x="72" y="98" font-family="'Geist Mono',monospace" font-size="20" font-weight="600" letter-spacing="3.4" fill="#fff">CHECKLIST</text><rect x="72" y="114" width="54" height="3" rx="1.5" fill="#fff"/><text x="72" y="200" font-family="'Plus Jakarta Sans',sans-serif" font-size="50" font-weight="700" letter-spacing="-2" fill="#fff"><tspan>The Meta Ads</tspan></text><text x="72" y="258" font-family="'Plus Jakarta Sans',sans-serif" font-size="50" font-weight="700" letter-spacing="-2" fill="#fff"><tspan>audit </tspan><tspan font-family="'Fraunces',serif" font-style="italic" font-weight="500">checklist</tspan><tspan>.</tspan></text><g transform="translate(720,180)"><rect width="360" height="230" rx="16" fill="rgba(255,255,255,.97)"/>
    <text x="24" y="34" font-family="'Geist Mono',monospace" font-size="11.5" letter-spacing="1.4" fill="#6c685f">META AUDIT · 20 CHECKS</text>
    <circle cx="38" cy="57" r="12" fill="rgba(22,147,90,.14)"/><path d="M32 -5 l4 4 l7 -8" transform="translate(0,62)" fill="none" stroke="#16935a" stroke-width="2.6" stroke-linecap="round" stroke-linejoin="round"/><text x="60" y="62" font-family="'Plus Jakarta Sans',sans-serif" font-size="15" font-weight="500" fill="#1c1a17">Tracking valid</text><circle cx="38" cy="91" r="12" fill="rgba(216,71,47,.12)"/><path d="M38 87 v5 M38 95 v.5" stroke="#d8472f" stroke-width="2.6" stroke-linecap="round"/><text x="60" y="96" font-family="'Plus Jakarta Sans',sans-serif" font-size="15" font-weight="600" fill="#d8472f">CBO leakage</text><circle cx="38" cy="125" r="12" fill="rgba(216,71,47,.12)"/><path d="M38 121 v5 M38 129 v.5" stroke="#d8472f" stroke-width="2.6" stroke-linecap="round"/><text x="60" y="130" font-family="'Plus Jakarta Sans',sans-serif" font-size="15" font-weight="600" fill="#d8472f">Audience Network</text><circle cx="38" cy="159" r="12" fill="rgba(22,147,90,.14)"/><path d="M32 -5 l4 4 l7 -8" transform="translate(0,164)" fill="none" stroke="#16935a" stroke-width="2.6" stroke-linecap="round" stroke-linejoin="round"/><text x="60" y="164" font-family="'Plus Jakarta Sans',sans-serif" font-size="15" font-weight="500" fill="#1c1a17">Frequency</text><circle cx="38" cy="193" r="12" fill="rgba(22,147,90,.14)"/><path d="M32 -5 l4 4 l7 -8" transform="translate(0,198)" fill="none" stroke="#16935a" stroke-width="2.6" stroke-linecap="round" stroke-linejoin="round"/><text x="60" y="198" font-family="'Plus Jakarta Sans',sans-serif" font-size="15" font-weight="500" fill="#1c1a17">Attribution</text>
  </g><g transform="translate(1020,552)"><rect width="36" height="36" rx="10" fill="#fff"/><g transform="translate(18,18.5) scale(0.165) translate(-85,-82)"><path d="M14 140 L85 6 L156 140 L128 140 L85 58 L42 140 Z" fill="#ff5a2c"/><path d="M50 140 L85 72 L120 140 L96 140 L85 118 L74 140 Z" fill="#ff5a2c"/><path d="M18 153 L152 153" stroke="#ff5a2c" stroke-width="9" stroke-linecap="round" opacity=".62"/></g><text x="46" y="24" font-family="'Plus Jakarta Sans',sans-serif" font-size="21" font-weight="800" letter-spacing="-.03em" fill="#fff">Adgent</text></g></svg>