<svg xmlns="http://www.w3.org/2000/svg" viewBox="0 0 1200 630" role="img" preserveAspectRatio="xMidYMid slice"><defs><pattern id="grid" width="36" height="36" patternUnits="userSpaceOnUse"><path d="M36 0 H0 V36" fill="none" stroke="rgba(255,255,255,.07)" stroke-width="1"/></pattern><radialGradient id="vg" cx="24%" cy="6%" r="100%"><stop offset="0%" stop-color="#ff6a3d"/><stop offset="100%" stop-color="#ec491d"/></radialGradient></defs><rect width="1200" height="630" fill="url(#vg)"/><rect width="1200" height="630" fill="url(#grid)"/><path d="M60 60 h24 M60 60 v24" stroke="rgba(255,255,255,.24)" stroke-width="2" fill="none"/><path d="M1140 570 h-24 M1140 570 v-24" stroke="rgba(255,255,255,.24)" stroke-width="2" fill="none"/><text x="72" y="98" font-family="'Geist Mono',monospace" font-size="20" font-weight="600" letter-spacing="3.4" fill="#fff">PROBLEM</text><rect x="72" y="114" width="54" height="3" rx="1.5" fill="#fff"/><text x="72" y="200" font-family="'Plus Jakarta Sans',sans-serif" font-size="48" font-weight="700" letter-spacing="-2" fill="#fff"><tspan>Is PMax eating</tspan></text><text x="72" y="256" font-family="'Plus Jakarta Sans',sans-serif" font-size="48" font-weight="700" letter-spacing="-2" fill="#fff"><tspan>your </tspan><tspan font-family="'Fraunces',serif" font-style="italic" font-weight="500">branded</tspan><tspan> search?</tspan></text><g transform="translate(700,230)">
    <rect x="0" y="40" width="150" height="60" rx="12" fill="#c8f7dd"/><text x="20" y="76" font-family="'Geist Mono',monospace" font-size="15" font-weight="600" fill="#0a6b3f">Brand · free</text>
    <path d="M160 70 h70" stroke="#fff" stroke-width="3" stroke-dasharray="3 6" opacity=".6"/><path d="M226 62 l14 8 l-14 8" fill="#fff" opacity=".6"/>
    <g transform="translate(244,40)"><rect width="150" height="60" rx="12" fill="#fff"/><text x="20" y="36" font-family="'Geist Mono',monospace" font-size="15" font-weight="600" fill="#ff5a2c">PMax takes it</text></g>
    <g transform="translate(70,140)"><rect width="220" height="34" rx="9" fill="rgba(255,255,255,.22)"/><text x="15" y="21.32" font-family="'Geist Mono',monospace" font-size="12" font-weight="600" fill="#fff">paying for free demand</text></g>
  </g><g transform="translate(1020,552)"><rect width="36" height="36" rx="10" fill="#fff"/><g transform="translate(18,18.5) scale(0.165) translate(-85,-82)"><path d="M14 140 L85 6 L156 140 L128 140 L85 58 L42 140 Z" fill="#ff5a2c"/><path d="M50 140 L85 72 L120 140 L96 140 L85 118 L74 140 Z" fill="#ff5a2c"/><path d="M18 153 L152 153" stroke="#ff5a2c" stroke-width="9" stroke-linecap="round" opacity=".62"/></g><text x="46" y="24" font-family="'Plus Jakarta Sans',sans-serif" font-size="21" font-weight="800" letter-spacing="-.03em" fill="#fff">Adgent</text></g></svg>