<svg xmlns="http://www.w3.org/2000/svg" viewBox="0 0 1200 630" role="img" preserveAspectRatio="xMidYMid slice"><defs>
    <pattern id="grid" width="36" height="36" patternUnits="userSpaceOnUse">
      <path d="M36 0 H0 V36" fill="none" stroke="rgba(255,255,255,0.07)" stroke-width="1"/>
    </pattern>
    <radialGradient id="vign" cx="50%" cy="18%" r="90%">
      <stop offset="0%" stop-color="#ff6a3d" stop-opacity="1"/>
      <stop offset="100%" stop-color="#ec491d" stop-opacity="1"/>
    </radialGradient>
  </defs>
  <rect width="1200" height="630" fill="url(#vign)"/>
  <rect width="1200" height="630" fill="url(#grid)"/>
  <!-- corner structure ticks -->
  <path d="M60 60 h24 M60 60 v24" stroke="rgba(255,255,255,0.22)" stroke-width="2" fill="none"/>
  <path d="M1140 570 h-24 M1140 570 v-24" stroke="rgba(255,255,255,0.22)" stroke-width="2" fill="none"/>
  <text x="72" y="98" font-family="'Geist Mono',monospace" font-size="21" font-weight="600" letter-spacing="3.6" fill="#ffffff">ATTRIBUTION</text>
  <rect x="72" y="114" width="58" height="3" rx="1.5" fill="#ffffff"/>
  <text x="402" y="98" font-family="'Geist Mono',monospace" font-size="15" letter-spacing="1.5" fill="rgba(255,255,255,0.62)">7 min read</text><text x="72" y="204" font-family="'Plus Jakarta Sans',sans-serif" font-size="58" font-weight="700" letter-spacing="-2" fill="#ffffff"><tspan>The leak hiding</tspan></text>
<text x="72" y="270" font-family="'Plus Jakarta Sans',sans-serif" font-size="58" font-weight="700" letter-spacing="-2" fill="#ffffff"><tspan>in your </tspan><tspan font-family="'Fraunces',serif" font-style="italic" font-weight="500" fill="#ffffff">average</tspan><tspan>.</tspan></text><g transform="translate(680,132)">
    <text x="0" y="46" font-family="'Fraunces',serif" font-size="76" font-style="italic" font-weight="500" fill="#ffffff">3.8×</text>
    <text x="176" y="46" font-family="'Geist Mono',monospace" font-size="17" fill="rgba(255,255,255,0.62)">blended</text>
    <line x1="4" y1="74" x2="424" y2="74" stroke="rgba(255,255,255,0.22)" stroke-width="1.5"/>
    <g transform="translate(0,100)">
      <rect x="0" y="0" width="270" height="50" rx="11" fill="#c8f7dd"/>
      <text x="18" y="32" font-family="'Geist Mono',monospace" font-size="17" font-weight="600" fill="#0a6b3f">Feed · 4.2×</text>
      <text x="232" y="33" font-family="'Plus Jakarta Sans',sans-serif" font-size="16" fill="#0a6b3f">▲</text>
      <rect x="0" y="64" width="112" height="50" rx="11" fill="rgba(255,255,255,0.22)"/>
      <text x="18" y="96" font-family="'Geist Mono',monospace" font-size="17" font-weight="600" fill="#ffffff">AN · 1.1×</text>
      <path d="M120 89 h84" stroke="#ffffff" stroke-width="2" stroke-dasharray="3 5" opacity="0.55"/>
      <g transform="translate(210,66)"><rect width="164" height="50" rx="12" fill="#ffffff"/><text x="18" y="32" font-family="'Geist Mono',monospace" font-size="16" font-weight="600" fill="#ff5a2c">the leak</text></g>
    </g>
  </g>
  <!-- brand lockup: white tile so the mark still reads on coral -->
  <g transform="translate(1020,550)">
    <rect width="38" height="38" rx="10" fill="#ffffff"/>
    <g transform="translate(19,19.5) scale(0.175) translate(-85,-82)">
      <path d="M14 140 L85 6 L156 140 L128 140 L85 58 L42 140 Z" fill="#ff5a2c"/>
      <path d="M50 140 L85 72 L120 140 L96 140 L85 118 L74 140 Z" fill="#ff5a2c"/>
      <path d="M18 153 L152 153" stroke="#ff5a2c" stroke-width="9" stroke-linecap="round" opacity="0.62"/>
    </g>
    <text x="50" y="25" font-family="'Plus Jakarta Sans',sans-serif" font-size="22" font-weight="800" letter-spacing="-0.6" fill="#ffffff">Adgent</text>
  </g></svg>