<svg xmlns="http://www.w3.org/2000/svg" viewBox="0 0 1200 630" role="img" preserveAspectRatio="xMidYMid slice">
  <rect width="1200" height="630" fill="#f3f2ef"/>
  <!-- soft coral glow top-left -->
  <defs>
    <radialGradient id="glow" cx="18%" cy="12%" r="60%">
      <stop offset="0%" stop-color="#ff5a2c" stop-opacity="0.10"/>
      <stop offset="100%" stop-color="#ff5a2c" stop-opacity="0"/>
    </radialGradient>
    <linearGradient id="fade" x1="0" y1="0" x2="0" y2="1">
      <stop offset="0%" stop-color="#ff5a2c" stop-opacity="0.9"/>
      <stop offset="100%" stop-color="#ff5a2c" stop-opacity="0.35"/>
    </linearGradient>
  </defs>
  <rect width="1200" height="630" fill="url(#glow)"/>
  <!-- accent rail left -->
  <rect x="0" y="0" width="10" height="630" fill="#ff5a2c"/>
  <text x="70" y="92" font-family="'Geist Mono',monospace" font-size="20" font-weight="500" letter-spacing="3.4" fill="#ff5a2c">ATTRIBUTION</text>
  <rect x="70" y="108" width="52" height="3" rx="1.5" fill="#ff5a2c"/><text x="70" y="176" font-family="'Plus Jakarta Sans',sans-serif" font-size="50" font-weight="700" letter-spacing="-1.6" fill="#1c1a17">The leak hiding</text>
<text x="70" y="234" font-family="'Plus Jakarta Sans',sans-serif" font-size="50" font-weight="700" letter-spacing="-1.6" fill="#1c1a17">in your average.</text><g transform="translate(690,132)">
    <text x="0" y="40" font-family="'Fraunces',serif" font-size="66" font-style="italic" font-weight="500" fill="#16935a">3.8×</text>
    <text x="150" y="40" font-family="'Geist Mono',monospace" font-size="17" fill="#9a958a">blended</text>
    <line x1="4" y1="66" x2="404" y2="66" stroke="rgba(28,25,20,0.16)" stroke-width="1.5"/>
    <!-- split bars -->
    <g transform="translate(0,92)">
      <rect x="0" y="0" width="250" height="46" rx="10" fill="rgba(22,147,90,0.14)"/>
      <text x="16" y="30" font-family="'Geist Mono',monospace" font-size="16" font-weight="600" fill="#16935a">Feed · 4.2×</text>
      <rect x="0" y="60" width="88" height="46" rx="10" fill="rgba(216,71,47,0.12)"/>
      <text x="16" y="90" font-family="'Geist Mono',monospace" font-size="16" font-weight="600" fill="#d8472f">AN · 1.1×</text>
      <g transform="translate(200,60)">
        <rect x="0" y="0" width="150" height="46" rx="10" fill="#d8472f"/>
        <text x="18" y="30" font-family="'Geist Mono',monospace" font-size="15" font-weight="600" fill="#fff">the leak</text>
      </g>
    </g>
  </g>
  <!-- brand lockup bottom-right -->
  <g transform="translate(1040,548)">
    <rect width="34" height="34" rx="9" fill="#ff5a2c"/>
    <g transform="translate(17,17.5) scale(0.155) translate(-85,-82)">
      <path d="M14 140 L85 6 L156 140 L128 140 L85 58 L42 140 Z" fill="#fff"/>
      <path d="M50 140 L85 72 L120 140 L96 140 L85 118 L74 140 Z" fill="#fff"/>
      <path d="M18 153 L152 153" stroke="#fff" stroke-width="9" stroke-linecap="round" opacity="0.62"/>
    </g>
    <text x="46" y="23" font-family="'Plus Jakarta Sans',sans-serif" font-size="20" font-weight="800" letter-spacing="-0.5" fill="#1c1a17">Adgent</text>
  </g></svg>