<svg xmlns="http://www.w3.org/2000/svg" viewBox="0 0 1200 630" role="img" preserveAspectRatio="xMidYMid slice">
  <rect width="1200" height="630" fill="#f3f2ef"/>
  <!-- soft coral glow top-left -->
  <defs>
    <radialGradient id="glow" cx="18%" cy="12%" r="60%">
      <stop offset="0%" stop-color="#ff5a2c" stop-opacity="0.10"/>
      <stop offset="100%" stop-color="#ff5a2c" stop-opacity="0"/>
    </radialGradient>
    <linearGradient id="fade" x1="0" y1="0" x2="0" y2="1">
      <stop offset="0%" stop-color="#ff5a2c" stop-opacity="0.9"/>
      <stop offset="100%" stop-color="#ff5a2c" stop-opacity="0.35"/>
    </linearGradient>
  </defs>
  <rect width="1200" height="630" fill="url(#glow)"/>
  <!-- accent rail left -->
  <rect x="0" y="0" width="10" height="630" fill="#ff5a2c"/>
  <text x="70" y="92" font-family="'Geist Mono',monospace" font-size="20" font-weight="500" letter-spacing="3.4" fill="#ff5a2c">SCALING</text>
  <rect x="70" y="108" width="52" height="3" rx="1.5" fill="#ff5a2c"/><text x="70" y="176" font-family="'Plus Jakarta Sans',sans-serif" font-size="50" font-weight="700" letter-spacing="-1.6" fill="#1c1a17">Scale a winner</text>
<text x="70" y="234" font-family="'Plus Jakarta Sans',sans-serif" font-size="50" font-weight="700" letter-spacing="-1.6" fill="#1c1a17">without breaking it.</text><g transform="translate(690,150)">
    <!-- +20% steps -->
    <rect x="0" y="300" width="120" height="46" rx="10" fill="rgba(255,90,44,0.12)" stroke="#ff5a2c" stroke-opacity="0.25"/>
      <text x="18" y="330" font-family="'Geist Mono',monospace" font-size="17" font-weight="600" fill="#ff5a2c">+20%</text><rect x="0" y="234" width="194" height="46" rx="10" fill="rgba(255,90,44,0.12)" stroke="#ff5a2c" stroke-opacity="0.25"/>
      <text x="18" y="264" font-family="'Geist Mono',monospace" font-size="17" font-weight="600" fill="#ff5a2c">+20%</text><rect x="0" y="168" width="268" height="46" rx="10" fill="rgba(255,90,44,0.12)" stroke="#ff5a2c" stroke-opacity="0.25"/>
      <text x="18" y="198" font-family="'Geist Mono',monospace" font-size="17" font-weight="600" fill="#ff5a2c">+20%</text><rect x="0" y="102" width="342" height="46" rx="10" fill="url(#fade)" stroke="#ff5a2c" stroke-opacity="0"/>
      <text x="18" y="132" font-family="'Geist Mono',monospace" font-size="17" font-weight="600" fill="#fff">+20%</text>
    <path d="M0 316 L360 40" stroke="#ff5a2c" stroke-width="3" stroke-dasharray="2 9" stroke-linecap="round" opacity="0.5"/>
    <g transform="translate(250,-6)">
      <rect x="0" y="0" width="196" height="34" rx="8" fill="rgba(22,147,90,0.14)"/>
      <text x="14" y="23" font-family="'Geist Mono',monospace" font-size="15" font-weight="600" fill="#16935a">learning intact</text>
    </g>
  </g>
  <!-- brand lockup bottom-right -->
  <g transform="translate(1040,548)">
    <rect width="34" height="34" rx="9" fill="#ff5a2c"/>
    <g transform="translate(17,17.5) scale(0.155) translate(-85,-82)">
      <path d="M14 140 L85 6 L156 140 L128 140 L85 58 L42 140 Z" fill="#fff"/>
      <path d="M50 140 L85 72 L120 140 L96 140 L85 118 L74 140 Z" fill="#fff"/>
      <path d="M18 153 L152 153" stroke="#fff" stroke-width="9" stroke-linecap="round" opacity="0.62"/>
    </g>
    <text x="46" y="23" font-family="'Plus Jakarta Sans',sans-serif" font-size="20" font-weight="800" letter-spacing="-0.5" fill="#1c1a17">Adgent</text>
  </g></svg>