<svg xmlns="http://www.w3.org/2000/svg" viewBox="0 0 1200 630" role="img" preserveAspectRatio="xMidYMid slice"><defs>
    <pattern id="grid" width="36" height="36" patternUnits="userSpaceOnUse">
      <path d="M36 0 H0 V36" fill="none" stroke="rgba(255,255,255,0.07)" stroke-width="1"/>
    </pattern>
    <radialGradient id="vign" cx="50%" cy="18%" r="90%">
      <stop offset="0%" stop-color="#ff6a3d" stop-opacity="1"/>
      <stop offset="100%" stop-color="#ec491d" stop-opacity="1"/>
    </radialGradient>
  </defs>
  <rect width="1200" height="630" fill="url(#vign)"/>
  <rect width="1200" height="630" fill="url(#grid)"/>
  <!-- corner structure ticks -->
  <path d="M60 60 h24 M60 60 v24" stroke="rgba(255,255,255,0.22)" stroke-width="2" fill="none"/>
  <path d="M1140 570 h-24 M1140 570 v-24" stroke="rgba(255,255,255,0.22)" stroke-width="2" fill="none"/>
  <text x="72" y="98" font-family="'Geist Mono',monospace" font-size="21" font-weight="600" letter-spacing="3.6" fill="#ffffff">SCALING</text>
  <rect x="72" y="114" width="58" height="3" rx="1.5" fill="#ffffff"/>
  <text x="402" y="98" font-family="'Geist Mono',monospace" font-size="15" letter-spacing="1.5" fill="rgba(255,255,255,0.62)">6 min read</text><text x="72" y="204" font-family="'Plus Jakarta Sans',sans-serif" font-size="58" font-weight="700" letter-spacing="-2" fill="#ffffff"><tspan>Scale a winner</tspan></text>
<text x="72" y="270" font-family="'Plus Jakarta Sans',sans-serif" font-size="58" font-weight="700" letter-spacing="-2" fill="#ffffff"><tspan>without </tspan><tspan font-family="'Fraunces',serif" font-style="italic" font-weight="500" fill="#ffffff">breaking</tspan><tspan> it.</tspan></text><g transform="translate(676,152)">
    <path d="M14 320 L378 44" stroke="rgba(255,255,255,0.30)" stroke-width="3" stroke-dasharray="2 10" stroke-linecap="round"/>
    <rect x="0" y="300" width="128" height="48" rx="11" fill="rgba(255,255,255,0.14)" stroke="rgba(255,255,255,0.22)"/>
      <text x="20" y="331" font-family="'Geist Mono',monospace" font-size="17" font-weight="600" fill="#ffffff">+20%</text>
      <text x="70" y="331" font-family="'Geist Mono',monospace" font-size="13" fill="rgba(255,255,255,0.62)">day 1</text><rect x="0" y="232" width="204" height="48" rx="11" fill="rgba(255,255,255,0.14)" stroke="rgba(255,255,255,0.22)"/>
      <text x="20" y="263" font-family="'Geist Mono',monospace" font-size="17" font-weight="600" fill="#ffffff">+20%</text>
      <text x="146" y="263" font-family="'Geist Mono',monospace" font-size="13" fill="rgba(255,255,255,0.62)">day 2</text><rect x="0" y="164" width="280" height="48" rx="11" fill="rgba(255,255,255,0.14)" stroke="rgba(255,255,255,0.22)"/>
      <text x="20" y="195" font-family="'Geist Mono',monospace" font-size="17" font-weight="600" fill="#ffffff">+20%</text>
      <text x="222" y="195" font-family="'Geist Mono',monospace" font-size="13" fill="rgba(255,255,255,0.62)">day 4</text><rect x="0" y="96" width="356" height="48" rx="11" fill="#ffffff" />
      <text x="20" y="127" font-family="'Geist Mono',monospace" font-size="17" font-weight="600" fill="#ff5a2c">+20%</text>
      <text x="298" y="127" font-family="'Geist Mono',monospace" font-size="13" fill="#ff5a2c">day 6</text>
    <g transform="translate(210,-2)"><rect width="196" height="34" rx="9" fill="rgba(255,255,255,0.22)"/><text x="15" y="22" font-family="'Geist Mono',monospace" font-size="15" font-weight="600" fill="#ffffff">learning intact</text></g>
    <circle cx="392" cy="52" r="6" fill="#ffffff"/>
  </g>
  <!-- brand lockup: white tile so the mark still reads on coral -->
  <g transform="translate(1020,550)">
    <rect width="38" height="38" rx="10" fill="#ffffff"/>
    <g transform="translate(19,19.5) scale(0.175) translate(-85,-82)">
      <path d="M14 140 L85 6 L156 140 L128 140 L85 58 L42 140 Z" fill="#ff5a2c"/>
      <path d="M50 140 L85 72 L120 140 L96 140 L85 118 L74 140 Z" fill="#ff5a2c"/>
      <path d="M18 153 L152 153" stroke="#ff5a2c" stroke-width="9" stroke-linecap="round" opacity="0.62"/>
    </g>
    <text x="50" y="25" font-family="'Plus Jakarta Sans',sans-serif" font-size="22" font-weight="800" letter-spacing="-0.6" fill="#ffffff">Adgent</text>
  </g></svg>