<svg xmlns="http://www.w3.org/2000/svg" viewBox="0 0 1200 630" role="img" preserveAspectRatio="xMidYMid slice"><defs><pattern id="grid" width="36" height="36" patternUnits="userSpaceOnUse"><path d="M36 0 H0 V36" fill="none" stroke="rgba(255,255,255,0.07)" stroke-width="1"/></pattern><radialGradient id="vign" cx="50%" cy="18%" r="90%"><stop offset="0%" stop-color="#ff6a3d"/><stop offset="100%" stop-color="#ec491d"/></radialGradient></defs><rect width="1200" height="630" fill="url(#vign)"/><rect width="1200" height="630" fill="url(#grid)"/><path d="M60 60 h24 M60 60 v24" stroke="rgba(255,255,255,0.22)" stroke-width="2" fill="none"/><path d="M1140 570 h-24 M1140 570 v-24" stroke="rgba(255,255,255,0.22)" stroke-width="2" fill="none"/><text x="72" y="98" font-family="'Geist Mono',monospace" font-size="21" font-weight="600" letter-spacing="3.6" fill="#fff">EXPLAINER</text><rect x="72" y="114" width="58" height="3" rx="1.5" fill="#fff"/><text x="402" y="98" font-family="'Geist Mono',monospace" font-size="15" letter-spacing="1.5" fill="rgba(255,255,255,0.62)">7 min read</text><text x="72" y="204" font-family="'Plus Jakarta Sans',sans-serif" font-size="58" font-weight="700" letter-spacing="-2" fill="#fff"><tspan>What is an</tspan></text><text x="72" y="270" font-family="'Plus Jakarta Sans',sans-serif" font-size="58" font-weight="700" letter-spacing="-2" fill="#fff"><tspan>AI </tspan><tspan font-family="'Fraunces',serif" font-style="italic" font-weight="500">media buyer</tspan><tspan>?</tspan></text><g transform="translate(686,150)">
    <text x="0" y="0" font-family="'Geist Mono',monospace" font-size="13" letter-spacing="1.5" fill="rgba(255,255,255,0.62)">DASHBOARD</text>
    <rect x="0" y="14" width="180" height="120" rx="14" fill="rgba(255,255,255,0.14)" stroke="rgba(255,255,255,0.22)"/>
    <rect x="18" y="38" width="144" height="10" rx="5" fill="rgba(255,255,255,0.30)"/><rect x="18" y="66" width="114" height="10" rx="5" fill="rgba(255,255,255,0.30)"/><rect x="18" y="94" width="84" height="10" rx="5" fill="rgba(255,255,255,0.30)"/>
    <text x="60" y="176" font-family="'Geist Mono',monospace" font-size="13" fill="rgba(255,255,255,0.62)">hands you data</text>

    <text x="240" y="0" font-family="'Geist Mono',monospace" font-size="13" letter-spacing="1.5" fill="#fff">AI MEDIA BUYER</text>
    <rect x="240" y="14" width="180" height="120" rx="14" fill="rgba(255,255,255,0.96)"/>
    <circle cx="272" cy="58" r="18" fill="rgba(255,90,44,0.12)"/>
    <path d="M264 58 l6 6 l11 -13" fill="none" stroke="#ff5a2c" stroke-width="3.5" stroke-linecap="round" stroke-linejoin="round"/>
    <text x="300" y="54" font-family="'Plus Jakarta Sans',sans-serif" font-size="15" font-weight="700" fill="#1c1a17">Exclude AN</text>
    <text x="300" y="74" font-family="'Geist Mono',monospace" font-size="11" fill="#6c685f">+9,400/mo</text>
    <rect x="258" y="96" width="146" height="26" rx="7" fill="rgba(255,90,44,0.10)"/>
    <text x="270" y="113" font-family="'Geist Mono',monospace" font-size="11" font-weight="600" fill="#ff5a2c">the verdict, first</text>
    <text x="290" y="176" font-family="'Geist Mono',monospace" font-size="13" fill="#fff">hands you a decision</text>
    <text x="205" y="80" font-family="'Plus Jakarta Sans',sans-serif" font-size="30" font-weight="700" fill="#fff">→</text>
  </g><g transform="translate(1020,550)"><rect width="38" height="38" rx="10" fill="#fff"/><g transform="translate(19,19.5) scale(0.175) translate(-85,-82)"><path d="M14 140 L85 6 L156 140 L128 140 L85 58 L42 140 Z" fill="#ff5a2c"/><path d="M50 140 L85 72 L120 140 L96 140 L85 118 L74 140 Z" fill="#ff5a2c"/><path d="M18 153 L152 153" stroke="#ff5a2c" stroke-width="9" stroke-linecap="round" opacity="0.62"/></g><text x="50" y="25" font-family="'Plus Jakarta Sans',sans-serif" font-size="22" font-weight="800" letter-spacing="-0.6" fill="#fff">Adgent</text></g></svg>