<svg xmlns="http://www.w3.org/2000/svg" viewBox="0 0 1200 630" role="img" preserveAspectRatio="xMidYMid slice"><defs>
    <pattern id="grid" width="36" height="36" patternUnits="userSpaceOnUse">
      <path d="M36 0 H0 V36" fill="none" stroke="rgba(255,255,255,0.07)" stroke-width="1"/>
    </pattern>
    <radialGradient id="vign" cx="50%" cy="18%" r="90%">
      <stop offset="0%" stop-color="#ff6a3d" stop-opacity="1"/>
      <stop offset="100%" stop-color="#ec491d" stop-opacity="1"/>
    </radialGradient>
  </defs>
  <rect width="1200" height="630" fill="url(#vign)"/>
  <rect width="1200" height="630" fill="url(#grid)"/>
  <!-- corner structure ticks -->
  <path d="M60 60 h24 M60 60 v24" stroke="rgba(255,255,255,0.22)" stroke-width="2" fill="none"/>
  <path d="M1140 570 h-24 M1140 570 v-24" stroke="rgba(255,255,255,0.22)" stroke-width="2" fill="none"/>
  <text x="72" y="98" font-family="'Geist Mono',monospace" font-size="21" font-weight="600" letter-spacing="3.6" fill="#ffffff">PRODUCT</text>
  <rect x="72" y="114" width="58" height="3" rx="1.5" fill="#ffffff"/>
  <text x="402" y="98" font-family="'Geist Mono',monospace" font-size="15" letter-spacing="1.5" fill="rgba(255,255,255,0.62)">4 min read</text><text x="72" y="204" font-family="'Plus Jakarta Sans',sans-serif" font-size="62" font-weight="700" letter-spacing="-2" fill="#ffffff"><tspan>Lead with</tspan></text>
<text x="72" y="274" font-family="'Plus Jakarta Sans',sans-serif" font-size="62" font-weight="700" letter-spacing="-2" fill="#ffffff"><tspan>the </tspan><tspan font-family="'Fraunces',serif" font-style="italic" font-weight="500" fill="#ffffff">verdict</tspan><tspan>.</tspan></text><g transform="translate(686,142)">
    <rect x="0" y="0" width="426" height="126" rx="18" fill="rgba(255,255,255,0.96)"/>
    <circle cx="46" cy="63" r="24" fill="rgba(255,90,44,0.12)"/>
    <path d="M35 63 l8 8 l15 -17" fill="none" stroke="#ff5a2c" stroke-width="4.5" stroke-linecap="round" stroke-linejoin="round"/>
    <text x="86" y="54" font-family="'Plus Jakarta Sans',sans-serif" font-size="24" font-weight="700" letter-spacing="-0.5" fill="#1c1a17">Exclude Audience Net</text>
    <g transform="translate(86,68)"><rect width="150" height="30" rx="8" fill="rgba(255,90,44,0.12)"/><text x="13" y="20" font-family="'Geist Mono',monospace" font-size="13" font-weight="600" fill="#ff5a2c">the answer · first</text></g>
    <rect x="4" y="162" width="390" height="15" rx="7.5" fill="rgba(255,255,255,0.14)"/>
      <circle cx="-14" cy="169" r="4.5" fill="rgba(255,255,255,0.30)"/><rect x="4" y="200" width="308" height="15" rx="7.5" fill="rgba(255,255,255,0.14)"/>
      <circle cx="-14" cy="207" r="4.5" fill="rgba(255,255,255,0.30)"/><rect x="4" y="238" width="226" height="15" rx="7.5" fill="rgba(255,255,255,0.14)"/>
      <circle cx="-14" cy="245" r="4.5" fill="rgba(255,255,255,0.30)"/>
    <text x="4" y="296" font-family="'Geist Mono',monospace" font-size="14" fill="rgba(255,255,255,0.62)">evidence · underneath</text>
  </g>
  <!-- brand lockup: white tile so the mark still reads on coral -->
  <g transform="translate(1020,550)">
    <rect width="38" height="38" rx="10" fill="#ffffff"/>
    <g transform="translate(19,19.5) scale(0.175) translate(-85,-82)">
      <path d="M14 140 L85 6 L156 140 L128 140 L85 58 L42 140 Z" fill="#ff5a2c"/>
      <path d="M50 140 L85 72 L120 140 L96 140 L85 118 L74 140 Z" fill="#ff5a2c"/>
      <path d="M18 153 L152 153" stroke="#ff5a2c" stroke-width="9" stroke-linecap="round" opacity="0.62"/>
    </g>
    <text x="50" y="25" font-family="'Plus Jakarta Sans',sans-serif" font-size="22" font-weight="800" letter-spacing="-0.6" fill="#ffffff">Adgent</text>
  </g></svg>